# xmcd
#
# Track frame offsets: 
#        182
#        26287
#        43780
#        67985
#        93780
#        114337
#        136287
#        163112
#        184537
#        207140
#        230265
#        253247
#
# Disc length: 3681 seconds
#
# Revision: 4
# Processed by: cddbd v1.5.2PL0 Copyright (c) Steve Scherf et al.
# Submitted via: ExactAudioCopyFreeDBPlugin 1.0
#
DISCID=950e5f0c
DTITLE=Various Artist - Smooth Grooves:  New Jack Ballads [Rhino]
DYEAR=1998
DGENRE=SMB
TTITLE0=Mac Band - Roses Are Red (ft The McCampbell Brothers)
TTITLE1=52nd Street - Tell Me (How It Feels)
TTITLE2=Guy - Let's Chill
TTITLE3=Doc Box and B. Fresh - Slow Love
TTITLE4=Dreamboy - I Promise (I Do Love You)
TTITLE5=Gary Taylor - (Tease Me)
TTITLE6=Timex Social Club - Thinkin' About Ya
TTITLE7=Déjà - That's Where You'll Find Me
TTITLE8=Tawatha - No More Tears
TTITLE9=Club Noveau - Why You Treat Me So Bad
TTITLE10=Troy Johnson - It's You
TTITLE11=Mico Wave - Instant Replay
EXTD=
EXTT0=
EXTT1=
EXTT2=
EXTT3=
EXTT4=
EXTT5=
EXTT6=
EXTT7=
EXTT8=
EXTT9=
EXTT10=
EXTT11=
PLAYORDER=
